<svg width="491" height="332" viewBox="0 0 491 332" fill="none" xmlns="http://www.w3.org/2000/svg">
<path d="M3.04004 173.773L156.106 328.44C158.133 330.467 160.799 331.64 163.679 331.64L479.946 331.64C485.813 331.64 490.613 326.84 490.613 320.973L490.613 11.6401C490.613 5.77313 485.813 0.973114 479.946 0.973114L163.679 0.973114C160.799 0.973114 158.132 2.14612 156.106 4.17313L3.03903 158.84C-1.01398 163 -1.01395 169.613 3.04004 173.773ZM168.16 22.3061L469.28 22.3061L469.28 310.306L168.053 310.306L25.5461 166.306L168.16 22.3061Z" fill="#B7B7B7"/>
<path d="M248.373 243.106C252.533 247.266 259.253 247.266 263.413 243.106L325.28 181.346L387.04 243.106C391.307 247.159 398.027 247.053 402.08 242.893C406.027 238.733 406.027 232.226 402.08 228.066L340.32 166.306L402.187 104.439C406.454 100.386 406.56 93.5591 402.4 89.3991C398.24 85.2391 391.52 85.0261 387.36 89.1861C387.253 89.2931 387.147 89.3991 387.147 89.3991L325.387 151.159L263.627 89.3991C259.36 85.3461 252.64 85.4521 248.587 89.6121C244.64 93.7721 244.64 100.279 248.587 104.439L310.134 166.306L248.374 228.066C244.213 232.226 244.213 238.946 248.373 243.106Z" fill="#B7B7B7"/>
</svg>
